<svg xmlns="http://www.w3.org/2000/svg" viewBox="0 0 1024 1024">
  <defs>
    <radialGradient id="bg" cx="0.3" cy="0.25" r="1.1">
      <stop offset="0"    stop-color="#1F2A40"/>
      <stop offset="0.35" stop-color="#141b2d"/>
      <stop offset="0.7"  stop-color="#0c101b"/>
      <stop offset="1"    stop-color="#040509"/>
    </radialGradient>
    <linearGradient id="sheen" x1="0" y1="0" x2="1" y2="1">
      <stop offset="0"   stop-color="#ffffff" stop-opacity="0.18"/>
      <stop offset="0.5" stop-color="#ffffff" stop-opacity="0"/>
      <stop offset="1"   stop-color="#4cceac" stop-opacity="0.12"/>
    </linearGradient>
    <linearGradient id="area" x1="0" y1="0" x2="0" y2="1">
      <stop offset="0" stop-color="#4cceac" stop-opacity="0.7"/>
      <stop offset="1" stop-color="#4cceac" stop-opacity="0"/>
    </linearGradient>
    <filter id="shadow" x="-40%" y="-40%" width="180%" height="180%">
      <feGaussianBlur in="SourceAlpha" stdDeviation="22"/>
      <feOffset dx="0" dy="14" result="o"/>
      <feComponentTransfer><feFuncA type="linear" slope="0.85"/></feComponentTransfer>
      <feMerge><feMergeNode/><feMergeNode in="SourceGraphic"/></feMerge>
    </filter>
    <clipPath id="tileClip"><rect width="1024" height="1024" rx="224"/></clipPath>
  </defs>
  <rect width="1024" height="1024" rx="224" fill="url(#bg)"/>
  <g clip-path="url(#tileClip)">
    <rect width="1024" height="1024" fill="url(#sheen)"/>
    <line x1="160" y1="320" x2="880" y2="320" stroke="#6870fa" stroke-width="2" opacity="0.3"/>
    <line x1="160" y1="450" x2="880" y2="450" stroke="#6870fa" stroke-width="2" opacity="0.3"/>
    <line x1="160" y1="580" x2="880" y2="580" stroke="#6870fa" stroke-width="2" opacity="0.3"/>
    <line x1="160" y1="710" x2="880" y2="710" stroke="#6870fa" stroke-width="2" opacity="0.3"/>
    <path d="M 200 780 L 200 620 L 320 540 L 440 580 L 560 440 L 680 480 L 820 320 L 820 780 Z" fill="url(#area)"/>
    <path d="M 200 620 L 320 540 L 440 580 L 560 440 L 680 480 L 820 320" fill="none" stroke="#ffffff" stroke-opacity="0.42" stroke-width="26" stroke-linecap="round" stroke-linejoin="round"/>
    <path d="M 200 620 L 320 540 L 440 580 L 560 440 L 680 480 L 820 320" fill="none" stroke="#4cceac" stroke-width="18" stroke-linecap="round" stroke-linejoin="round"/>
    <circle cx="200" cy="620" r="17" fill="#1F2A40" stroke="#4cceac" stroke-width="7"/>
    <circle cx="320" cy="540" r="17" fill="#1F2A40" stroke="#4cceac" stroke-width="7"/>
    <circle cx="440" cy="580" r="17" fill="#1F2A40" stroke="#4cceac" stroke-width="7"/>
    <circle cx="560" cy="440" r="17" fill="#1F2A40" stroke="#4cceac" stroke-width="7"/>
    <circle cx="680" cy="480" r="17" fill="#1F2A40" stroke="#4cceac" stroke-width="7"/>
    <circle cx="820" cy="320" r="17" fill="#1F2A40" stroke="#4cceac" stroke-width="7"/>
    <path d="M 628 355.5
              C 628 283, 396 283, 396 471.5
              C 396 529.5, 628 500.5, 628 558.5
              C 628 747, 396 747, 396 674.5"
          fill="none" stroke="#ffffff" stroke-width="92.8"
          stroke-linecap="round" stroke-linejoin="round" filter="url(#shadow)"/>
  </g>
</svg>
